<?xml version="1.0" encoding="UTF-8" standalone="no"?>
<!DOCTYPE svg PUBLIC "-//W3C//DTD SVG 1.1//EN" "http://www.w3.org/Graphics/SVG/1.1/DTD/svg11.dtd">
<svg version="1.1" xmlns="http://www.w3.org/2000/svg" xmlns:dc="http://purl.org/dc/elements/1.1/" xmlns:xl="http://www.w3.org/1999/xlink" viewBox="0 0 100 100" width="100" height="100">
  <defs/>
  <metadata> Produced by OmniGraffle 7.19.2\n2021-11-14 20:45:02 +0000</metadata>
  <g id="favicon-pinned-svg_--_small" stroke-dasharray="none" fill-opacity="1" fill="none" stroke="none" stroke-opacity="1">
    <title>favicon-pinned-svg -- small</title>
    <g id="favicon-pinned-svg_--_small_Layer_1">
      <title>Layer 1</title>
      <g id="Group_52">
        <g id="Graphic_47">
          <path d="M 10 1.1228534 L 10 48.282695 L 43.35535 48.282695 L 43.35535 39.56407 L 20.36988 39.56407 L 20.36988 1.1228534 Z" fill="black"/>
        </g>
        <g id="Graphic_48">
          <path d="M 83.24967 42.93263 L 84.30647 48.282695 L 90.91149 48.282695 L 90.91149 22.787318 L 71.09643 22.787318 L 71.09643 30.51519 L 81.53236 30.51519 C 81.22413 33.817718 80.13431 36.33861 78.26288 38.07794 C 76.39145 39.81727 73.73846 40.68692 70.30383 40.68692 C 67.970046 40.68692 65.98856 40.235584 64.35931 39.332893 C 62.73007 38.430202 61.409076 37.230303 60.3963 35.733157 C 59.383526 34.23601 58.64597 32.55175 58.18362 30.680317 C 57.721266 28.808885 57.49009 26.88244 57.49009 24.900925 C 57.49009 22.831341 57.721266 20.82784 58.18362 18.890357 C 58.64597 16.952875 59.383526 15.224578 60.3963 13.705416 C 61.409076 12.186254 62.73007 10.975346 64.35931 10.072655 C 65.98856 9.169965 67.970046 8.718626 70.30383 8.718626 C 72.81375 8.718626 74.94935 9.379122 76.7107 10.700132 C 78.47205 12.021143 79.66094 14.002629 80.27741 16.64465 L 90.18494 16.64465 C 89.92074 13.958595 89.19419 11.580812 88.00528 9.511229 C 86.81637 7.441645 85.30824 5.702341 83.48085 4.293263 C 81.65345 2.884185 79.60591 1.816384 77.33818 1.0898283 C 75.07044 .36327246 72.72568 35527137e-22 70.30383 35527137e-22 C 66.69307 35527137e-22 63.44563 .6384789 60.56143 1.9154557 C 57.67722 3.1924326 55.244396 4.9537536 53.26288 7.199472 C 51.281364 9.44519 49.762225 12.076163 48.705416 15.09247 C 47.64861 18.108778 47.12021 21.37823 47.12021 24.900925 C 47.12021 28.335552 47.64861 31.538955 48.705416 34.51123 C 49.762225 37.483502 51.281364 40.070443 53.26288 42.272127 C 55.244396 44.47381 57.67722 46.20211 60.56143 47.45707 C 63.44563 48.71203 66.69307 49.3395 70.30383 49.3395 C 72.59358 49.3395 74.86128 48.866143 77.107 47.91942 C 79.35272 46.972695 81.400255 45.31045 83.24967 42.93263 Z" fill="black"/>
        </g>
        <g id="Graphic_49">
          <path d="M 20.36988 71.92867 L 20.36988 60.89828 L 30.07926 60.89828 C 31.003968 60.89828 31.895636 60.97534 32.754293 61.12946 C 33.61295 61.283576 34.37252 61.55878 35.033025 61.955086 C 35.69353 62.35139 36.221927 62.9018 36.61823 63.60634 C 37.014533 64.31088 37.21268 65.21356 37.21268 66.3144 C 37.21268 68.295915 36.618236 69.72699 35.429326 70.60766 C 34.240417 71.488336 32.721277 71.92867 30.871863 71.92867 Z M 10 52.84016 L 10 100 L 32.85337 100 C 34.966985 100 37.02553 99.7358 39.02906 99.2074 C 41.032595 98.67899 42.81593 97.86438 44.37913 96.76354 C 45.942324 95.6627 47.186257 94.24263 48.110964 92.5033 C 49.03567 90.76397 49.49802 88.70543 49.49802 86.32761 C 49.49802 83.37735 48.78248 80.85646 47.351387 78.76486 C 45.92029 76.67326 43.751666 75.20916 40.845443 74.37252 C 42.95906 73.35975 44.555257 72.06077 45.63408 70.47556 C 46.712907 68.89035 47.25231 66.90886 47.25231 64.53104 C 47.25231 62.32936 46.88904 60.47997 46.162483 58.98283 C 45.43593 57.48568 44.41216 56.28578 43.09115 55.38309 C 41.77014 54.4804 40.18495 53.830913 38.335535 53.43461 C 36.48612 53.03831 34.438585 52.84016 32.192867 52.84016 Z M 20.36988 91.94188 L 20.36988 78.99604 L 31.664465 78.99604 C 33.910183 78.99604 35.715537 79.513425 37.08058 80.54822 C 38.445625 81.58301 39.128137 83.3113 39.128137 85.73316 C 39.128137 86.9661 38.91898 87.97886 38.50066 88.77147 C 38.08234 89.56407 37.52092 90.19154 36.81638 90.6539 C 36.11184 91.11625 35.29723 91.4465 34.372523 91.64465 C 33.447816 91.8428 32.47909 91.94188 31.466314 91.94188 Z" fill="black"/>
        </g>
        <g id="Graphic_50">
          <path d="M 66.93527 61.558785 L 66.93527 100 L 77.30515 100 L 77.30515 61.558785 L 91.43989 61.558785 L 91.43989 52.84016 L 52.80053 52.84016 L 52.80053 61.558785 Z" fill="black"/>
        </g>
      </g>
    </g>
  </g>
</svg>
